<mxfile host="app.diagrams.net" modified="2021-04-25T06:30:02.352Z" agent="5.0 (Macintosh; Intel Mac OS X 10_15_7) AppleWebKit/537.36 (KHTML, like Gecko) Chrome/86.0.4240.193 Safari/537.36" etag="-ViM-3Gq3sFPpRfFHc15" version="14.6.6" type="github">
  <diagram id="rvVVwVOX1Zpa5Sj0h-Zx" name="Page-1">
    <mxGraphModel dx="946" dy="536" grid="1" gridSize="10" guides="1" tooltips="1" connect="1" arrows="1" fold="1" page="1" pageScale="1" pageWidth="827" pageHeight="1169" math="0" shadow="0">
      <root>
        <mxCell id="0" />
        <mxCell id="1" parent="0" />
        <mxCell id="-b-owG68avB0_USEyX34-2" value="NameServer" style="rounded=1;whiteSpace=wrap;html=1;" vertex="1" parent="1">
          <mxGeometry x="70" y="150" width="120" height="60" as="geometry" />
        </mxCell>
        <mxCell id="-b-owG68avB0_USEyX34-6" style="rounded=0;orthogonalLoop=1;jettySize=auto;html=1;exitX=1;exitY=0.5;exitDx=0;exitDy=0;entryX=0;entryY=0.5;entryDx=0;entryDy=0;" edge="1" parent="1" source="-b-owG68avB0_USEyX34-3" target="-b-owG68avB0_USEyX34-4">
          <mxGeometry relative="1" as="geometry" />
        </mxCell>
        <mxCell id="-b-owG68avB0_USEyX34-7" style="rounded=0;orthogonalLoop=1;jettySize=auto;html=1;exitX=1;exitY=0.5;exitDx=0;exitDy=0;entryX=0;entryY=0.5;entryDx=0;entryDy=0;" edge="1" parent="1" source="-b-owG68avB0_USEyX34-3" target="-b-owG68avB0_USEyX34-5">
          <mxGeometry relative="1" as="geometry" />
        </mxCell>
        <mxCell id="-b-owG68avB0_USEyX34-3" value="Consumer" style="rounded=1;whiteSpace=wrap;html=1;" vertex="1" parent="1">
          <mxGeometry x="70" y="310" width="120" height="60" as="geometry" />
        </mxCell>
        <mxCell id="-b-owG68avB0_USEyX34-4" value="Broker-a" style="rounded=1;whiteSpace=wrap;html=1;" vertex="1" parent="1">
          <mxGeometry x="310" y="250" width="120" height="60" as="geometry" />
        </mxCell>
        <mxCell id="-b-owG68avB0_USEyX34-5" value="Broker-b" style="rounded=1;whiteSpace=wrap;html=1;" vertex="1" parent="1">
          <mxGeometry x="310" y="370" width="120" height="60" as="geometry" />
        </mxCell>
      </root>
    </mxGraphModel>
  </diagram>
</mxfile>
